# AST/ASF file generated using VICON BodyLanguage
# -----------------------------------------------
:version 1.10
:name VICON
:units
  mass 1.0
  length 0.45
  angle deg
:documentation
   .ast/.asf automatically generated from VICON data using
   VICON BodyBuilder and BodyLanguage model FoxedUp or BRILLIANT.MOD
:root
   order TX TY TZ RX RY RZ
   axis XYZ
   position 0 0 0  
   orientation 0 0 0 
:bonedata
  begin
     id 1 
     name lhipjoint
     direction 0.682418 -0.694059 0.22932 
     length 2.25561 
     axis 0 0 0  XYZ
  end
  begin
     id 2 
     name lfemur
     direction 0.34202 -0.939693 0  
     length 6.96448  
     axis 0 0 20  XYZ
    dof rx ry rz
    limits (-160.0 20.0)
           (-70.0 70.0)
           (-60.0 70.0)
  end
  begin
     id 3 
     name ltibia
     direction 0.34202 -0.939693 0   
     length 6.88553   
     axis 0 0 20   XYZ
    dof rx
    limits (-10.0 170.0)
  end
  begin
     id 4 
     name lfoot
     direction 0.0723587 -0.198804 0.977364   
     length 1.88518   
     axis -90 7.62852e-016 20   XYZ
    dof rx rz
    limits (-45.0 90.0)
           (-70.0 20.0)
  end
  begin
     id 5 
     name ltoes
     direction 1.53558e-011 -4.21962e-011 1   
     length 0.952124   
     axis -90 7.62852e-016 20   XYZ
    dof rx
    limits (-90.0 20.0)
  end
  begin
     id 6 
     name rhipjoint
     direction -0.657603 -0.71533 0.236348   
     length 2.18854  
     axis 0 0 0  XYZ 
  end
  begin
     id 7 
     name rfemur
     direction -0.34202 -0.939693 0   
     length 6.86686   
     axis 0 0 -20   XYZ
    dof rx ry rz
    limits (-160.0 20.0)
           (-70.0 70.0)
           (-70.0 60.0)
  end
  begin
     id 8 
     name rtibia
     direction -0.34202 -0.939693 0   
     length 6.59503   
     axis 0 0 -20   XYZ
    dof rx
    limits (-10.0 170.0)
 end
 begin
     id 9 
     name rfoot
     direction -0.101977 -0.280179 0.954516   
     length 1.93723  
     axis -90 -7.62852e-016 -20   XYZ
    dof rx rz
    limits (-45.0 90.0)
           (-20.0 70.0)
  end
  begin
     id 10 
     name rtoes
     direction -1.53564e-011 -4.21897e-011 1   
     length 0.970315   
     axis -90 -7.62852e-016 -20   XYZ
    dof rx
    limits (-90.0 20.0)
  end
  begin
     id 11 
     name lowerback
     direction -0.0339559 0.999421 -0.00235966   
     length 1.88543   
     axis 0 0 0   XYZ
    dof rx ry rz
    limits (-20.0 45.0)
           (-30.0 30.0)
           (-30.0 30.0)
  end
  begin
     id 12 
     name upperback
     direction 0.00401003 0.999739 0.0224689   
     length 1.8856   
     axis 0 0 0   XYZ
    dof rx ry rz
    limits (-20.0 45.0)
           (-30.0 30.0)
           (-30.0 30.0)
  end
  begin
     id 13 
     name thorax
     direction 0.0198619 0.999546 0.0226536   
     length 1.88352   
     axis 0 0 0   XYZ
    dof rx ry rz
    limits (-20.0 45.0)
           (-30.0 30.0)
           (-30.0 30.0)
  end
  begin
     id 14 
     name lowerneck
     direction -0.0461848 0.998632 0.0245198   
     length 1.34895   
     axis 0 0 0   XYZ
    dof rx ry rz
    limits (-20.0 45.0)
           (-30.0 30.0)
           (-30.0 30.0)
  end
  begin
     id 15 
     name upperneck
     direction -0.0180627 0.994724 -0.100984   
     length 1.35214   
     axis 0 0 0   XYZ
    dof rx ry rz
    limits (-20.0 45.0)
           (-30.0 30.0)
           (-30.0 30.0)
  end
  begin
     id 16
     name head
     direction -0.00374772 0.999293 -0.037403  
     length 1.3568  
     axis 0 0 0   XYZ
    dof rx ry rz
    limits (-20.0 45.0)
           (-30.0 30.0)
           (-30.0 30.0)
  end
  begin
     id 17 
     name lclavicle
     direction 0.971773 0.191119 0.138311  
     length 2.84954  
     axis 0 0 0   XYZ
    dof ry rz
    limits (-20.0 10.0)
           (0.0 20.0)
  end
  begin
     id 18 
     name lhumerus
     direction 1 -4.4897e-011 -2.43761e-027   
     length 4.40919   
     axis 180 -30 -90   XYZ
    dof rx ry rz
    limits (-60.0 90.0)
           (-90.0 90.0)
           (-90.0 90.0)
  end
  begin
     id 19
     name lradius
     direction 1 -4.4896e-011 -9.1621e-027   
     length 3.03857   
     axis 180 -30 -90   XYZ
    dof rx
    limits (-10.0 170.0)
  end
  begin
     id 20
     name lwrist
     direction 1 -4.4896e-011 -1.41363e-026   
     length 1.51928   
     axis 1.07133e-014 90 90   XYZ
    dof ry
    limits (-180.0 0.0)
 end
  begin
     id 21 
     name lhand
     direction 1 -4.48978e-011 -2.82725e-026   
     length 0.523208   
     axis 1.80403e-014 90 90   XYZ
    dof rx rz
    limits (-90.0 90.0)
           (-45.0 45.0)
  end
  begin
     id 22 
     name lfingers
     direction 1 -4.48977e-011 -5.6545e-026   
     length 0.421824   
     axis 3.60806e-014 90 90   XYZ
    dof rx
    limits (0.0 90.0)
  end
  begin
     id 23
     name lthumb
     direction 0.707107 -6.34962e-011 0.707107   
     length 0.605657   
     axis -90 45 2.85299e-015   XYZ
    dof rx rz
    limits (-45.0 45.0)
           (-45.0 45.0)
  end
  begin
     id 24 
     name rclavicle
     direction -0.957247 0.24311 0.156766   
     length 3.12406  
     axis 0 0 0   XYZ 
    dof ry rz
    limits (-10.0 20.0)
           (-20.0 0.0)
  end
  begin
     id 25 
     name rhumerus
     direction -1 -4.48964e-011 -1.70632e-027  
     length 4.61969   
     axis 180 30 90   XYZ
    dof rx ry rz
    limits (-90.0 60.0)
           (-90.0 90.0)
           (-90.0 90.0)
  end
  begin
     id 26 
     name rradius
     direction -1 -4.48966e-011 -6.60395e-027   
     length 3.09382   
     axis 180 30 90   XYZ
    dof rx
    limits (-10.0 170.0)
  end
  begin
     id 27 
     name rwrist
     direction -1 -4.48963e-011 -1.41363e-026   
     length 1.54691   
     axis 1.07133e-014 -90 -90   XYZ
    dof ry
    limits (-180.0 0.0)
  end
  begin
     id 28
     name rhand
     direction -1 -4.49013e-011 -2.82725e-026   
     length 0.500896   
     axis 1.80403e-014 -90 -90   XYZ
    dof rx rz
    limits (-90.0 90.0)
           (-45.0 45.0)
  end
  begin
     id 29
     name rfingers
     direction -1 -4.48902e-011 -5.6545e-026   
     length 0.403835   
     axis 3.60806e-014 -90 -90   XYZ
    dof rx
    limits (0.0 90.0)
  end
  begin
     id 30
     name rthumb
     direction -0.707107 -6.34953e-011 0.707107   
     length 0.579829   
     axis -90 -45 -2.85299e-015   XYZ
    dof rx rz
    limits (-45.0 45.0)
           (-45.0 45.0)
  end
:hierarchy
  begin
    root lhipjoint rhipjoint lowerback
    lhipjoint lfemur
    lfemur ltibia
    ltibia lfoot
    lfoot ltoes
    rhipjoint rfemur
    rfemur rtibia
    rtibia rfoot
    rfoot rtoes
    lowerback upperback
    upperback thorax
    thorax lowerneck lclavicle rclavicle
    lowerneck upperneck
    upperneck head
    lclavicle lhumerus
    lhumerus lradius
    lradius lwrist
    lwrist lhand lthumb
    lhand lfingers
    rclavicle rhumerus
    rhumerus rradius
    rradius rwrist
    rwrist rhand rthumb
    rhand rfingers
  end

#!OML:ASF E:\madness\Project 1\Capture day 1\Session 1\Female1.ASF
:FULLY-SPECIFIED
:DEGREES
434
root 11.2304 15.7831 -3.72899 10.54 -85.9571 9.18341
lowerback 31.343 2.97602 -1.69327
upperback 10.248 1.83812 -4.18786
thorax -5.43278 0.52657 -4.31449
lowerneck -4.16297 11.4668 5.64097
upperneck 2.03338 16.0796 -22.2667
head 3.67601 7.5715 -6.76177
rclavicle 3.37934e-014 -6.04305e-014
rhumerus -49.9307 -11.1178 -47.8149
rradius 91.2566
rwrist -26.2916
rhand -17.8098 -38.8203
rfingers 7.12502
rthumb 8.4539 -68.6311
lclavicle 3.37934e-014 -6.04305e-014
lhumerus -36.8377 0.616221 70.2891
lradius 96.6272
lwrist 1.73651
lhand -53.9538 -15.851
lfingers 7.12502
lthumb -26.3791 12.334
rfemur -38.503 1.20391 22.4345
rtibia 37.1271
rfoot -18.3551 -9.48069
rtoes 7.19411
lfemur -58.0335 -14.1895 4.82396
ltibia 53.8873
lfoot 9.77337 -0.833779
ltoes -6.23939
435
root 11.2549 15.7675 -3.73884 9.34598 -86.1627 10.2601
lowerback 31.3519 3.052 -1.61358
upperback 10.2872 1.96298 -4.07521
thorax -5.38603 0.584429 -4.27563
lowerneck -4.68482 11.3702 5.25303
upperneck 2.56594 16.0349 -21.8782
head 3.84725 7.48416 -6.54833
rclavicle 3.89618e-014 4.57205e-014
rhumerus -49.9313 -11.2038 -45.9462
rradius 91.8477
rwrist -26.4424
rhand -17.7609 -39.082
rfingers 7.12502
rthumb 8.50109 -68.8909
lclavicle 3.89618e-014 4.57205e-014
lhumerus -37.5807 1.24184 69.6766
lradius 96.6523
lwrist 2.07809
lhand -54.0134 -16.2058
lfingers 7.12502
lthumb -26.4362 11.9707
rfemur -38.8885 1.06156 22.5516
rtibia 37.8176
rfoot -18.2134 -9.45313
rtoes 6.43364
lfemur -57.4623 -14.0851 4.49235
ltibia 53.4755
lfoot 9.28831 0.0500515
ltoes -4.13595
436
root 11.2779 15.7541 -3.75398 5.53516 -86.4314 14.0516
lowerback 31.0785 3.19155 -1.91204
upperback 10.3225 2.07445 -3.98131
thorax -5.23118 0.634195 -4.02189
lowerneck -5.43 11.2885 5.156
upperneck 3.55194 16.0732 -21.4429
head 4.224 7.39778 -6.33831
rclavicle -1.23246e-014 5.66536e-014
rhumerus -49.8353 -10.9599 -44.166
rradius 92.5989
rwrist -26.9907
rhand -17.1034 -39.4725
rfingers 7.12502
rthumb 9.13556 -69.2546
lclavicle -1.23246e-014 5.66536e-014
lhumerus -38.3641 1.91658 68.7755
lradius 96.795
lwrist 2.17375
lhand -54.0817 -16.0833
lfingers 7.12502
lthumb -26.5016 12.0833
rfemur -39.3357 1.05066 22.4495
rtibia 38.4826
rfoot -18.045 -9.33157
rtoes 7.28895
lfemur -56.925 -14.0402 4.15946
ltibia 52.8615
lfoot 8.8361 0.666121
ltoes -2.28125
437
root 11.3046 15.7416 -3.77302 0.163815 -86.7051 19.2828
lowerback 31.0848 3.43458 -2.26761
upperback 10.3434 2.28253 -3.84397
thorax -5.21984 0.724794 -3.73316
lowerneck -6.14066 11.0274 4.94634
upperneck 4.20506 15.7982 -20.8267
head 4.42852 7.19076 -6.09805
rclavicle -2.04748e-014 -7.37491e-014
rhumerus -49.773 -10.6884 -42.1893
rradius 93.3472
rwrist -27.5418
rhand -16.6253 -40.2454
rfingers 7.12502
rthumb 9.59687 -70.0068
lclavicle -2.04748e-014 -7.37491e-014
lhumerus -38.9735 2.36276 67.9334
lradius 97.1116
lwrist 2.16841
lhand -54.2041 -15.4085
lfingers 7.12502
lthumb -26.6186 12.7404
rfemur -39.6618 1.1778 22.2554
rtibia 39.1212
rfoot -18.0181 -9.20261
rtoes 8.55149
lfemur -56.3497 -14.0291 3.83126
ltibia 52.2469
lfoot 8.27981 1.19404
ltoes 0.142873
438
root 11.3307 15.7242 -3.77994 -3.1863 -85.9197 22.2648
lowerback 31.4658 3.13674 -1.94462
upperback 10.4823 1.99524 -3.68728
thorax -5.2433 0.586207 -3.65685
lowerneck -6.00115 11.0122 4.78622
upperneck 4.26488 15.8119 -21.0354
head 4.43124 7.18965 -6.14434
rclavicle 4.17448e-015 6.07287e-014
rhumerus -49.477 -10.5477 -40.1052
rradius 94.0161
rwrist -27.8605
rhand -16.4156 -41.0169
rfingers 7.12502
rthumb 9.7992 -70.7689
lclavicle 4.17448e-015 6.07287e-014
lhumerus -39.2727 2.65692 67.016
lradius 97.4
lwrist 2.35468
lhand -54.2295 -15.5691
lfingers 7.12502
lthumb -26.643 12.576
rfemur -39.7049 0.538902 22.0311
rtibia 39.8128
rfoot -18.2805 -9.37986
rtoes 8.42671
lfemur -56.1193 -14.8105 3.57687
ltibia 51.6914
lfoot 7.75103 1.37842
ltoes -0.996006
439
root 11.3608 15.6998 -3.79929 -6.32119 -86.1802 25.5324
lowerback 31.1078 3.32277 -2.17314
upperback 10.5025 2.19414 -3.58052
thorax -5.06286 0.679517 -3.45732
lowerneck -7.5765 10.8956 3.79991
upperneck 6.22565 15.9538 -19.6062
head 5.09951 7.06393 -5.43024
rclavicle -1.28216e-014 9.02482e-014
rhumerus -49.0445 -10.5191 -38.0292
rradius 94.8091
rwrist -28.0842
rhand -16.2261 -41.9429
rfingers 7.12502
rthumb 9.98203 -71.6862
lclavicle -1.28216e-014 9.02482e-014
lhumerus -39.3722 2.89582 65.7891
lradius 97.4028
lwrist 2.50825
lhand -54.3009 -17.0273
lfingers 7.12502
lthumb -26.7113 11.1075
rfemur -40.4105 0.698944 21.9423
rtibia 40.5228
rfoot -18.303 -9.30518
rtoes 7.90861
lfemur -55.9941 -14.4316 3.40204
ltibia 51.438
lfoot 7.14439 1.55209
ltoes -1.64788
440
root 11.3944 15.6872 -3.80979 -8.14571 -85.6335 27.033
lowerback 31.5319 3.09827 -1.93545
upperback 10.5272 1.96709 -3.49397
thorax -5.23159 0.570335 -3.43626
lowerneck -7.0232 10.6109 4.15224
upperneck 5.64498 15.4551 -19.945
head 4.82473 6.88478 -5.68
rclavicle -4.87022e-015 -8.1949e-014
rhumerus -48.7182 -10.5503 -35.883
rradius 95.7984
rwrist -28.3409
rhand -16.0362 -42.834
rfingers 7.12502
rthumb 10.1653 -72.5684
lclavicle -4.87022e-015 -8.1949e-014
lhumerus -39.383 2.97143 64.2619
lradius 97.5303
lwrist 2.62519
lhand -54.4908 -17.3371
lfingers 7.12502
lthumb -26.893 10.7698
rfemur -40.5469 0.158045 21.7962
rtibia 41.2782
rfoot -18.3674 -9.29099
rtoes 8.38395
lfemur -55.8569 -14.7339 3.02335
ltibia 51.3796
lfoot 6.4664 1.46699
ltoes 0.208611
441
root 11.4395 15.6664 -3.81325 -8.69275 -85.2072 27.5054
lowerback 31.6949 2.84528 -1.56697
upperback 10.5434 1.76009 -3.44847
thorax -5.28568 0.476686 -3.532
lowerneck -6.92602 10.431 4.62436
upperneck 5.62237 15.1993 -20.3489
head 4.84207 6.75782 -5.91302
rclavicle 3.37934e-015 -1.65488e-014
rhumerus -48.2665 -10.755 -33.7751
rradius 96.7977
rwrist -28.5561
rhand -16.259 -42.2942
rfingers 7.12502
rthumb 9.95029 -72.039
lclavicle 3.37934e-015 -1.65488e-014
lhumerus -39.2723 3.22188 63.0948
lradius 98.1
lwrist 2.62011
lhand -54.3946 -14.8536
lfingers 7.12502
lthumb -26.801 13.2674
rfemur -41.069 -0.326509 21.709
rtibia 42.0656
rfoot -18.2192 -9.19914
rtoes 9.54168
lfemur -56.1231 -14.8554 2.80597
ltibia 51.5362
lfoot 5.72501 1.60035
ltoes 1.59706
442
root 11.482 15.6418 -3.81765 -9.13479 -84.8524 28.1218
lowerback 31.271 2.63082 -1.17636
upperback 10.6812 1.63293 -3.43723
thorax -4.93245 0.427274 -3.68202
lowerneck -6.85891 10.2654 4.98989
upperneck 5.70481 14.9774 -20.6094
head 4.87752 6.64376 -6.08008
rclavicle 9.59136e-015 9.0944e-015
rhumerus -47.3686 -11.1694 -31.8718
rradius 97.3819
rwrist -28.5647
rhand -16.8085 -40.9891
rfingers 7.12502
rthumb 9.42017 -70.7586
lclavicle 9.59136e-015 9.0944e-015
lhumerus -38.6282 3.25606 61.6069
lradius 98.3859
lwrist 3.15154
lhand -54.2085 -13.6028
lfingers 7.12502
lthumb -26.6229 14.5455
rfemur -41.8827 -0.64073 21.5701
rtibia 42.9008
rfoot -18.2393 -9.0717
rtoes 11.1225
lfemur -56.5493 -14.7895 2.59681
ltibia 51.7305
lfoot 4.90668 1.86647
ltoes 1.22813
443
root 11.5201 15.6144 -3.81522 -8.92308 -84.3333 28.184
lowerback 31.2464 2.4858 -0.89085
upperback 10.4267 1.5922 -3.19579
thorax -5.21283 0.419407 -3.56738
lowerneck -6.72806 10.0846 4.68883
upperneck 6.24187 14.8002 -20.2356
head 4.93639 6.53553 -5.93882
rclavicle -8.99501e-015 4.87022e-014
rhumerus -46.6566 -11.0491 -29.4851
rradius 97.9284
rwrist -29.0032
rhand -17.0821 -40.8348
rfingers 7.12502
rthumb 9.15608 -70.6161
lclavicle -8.99501e-015 4.87022e-014
lhumerus -38.5359 2.9678 60.4305
lradius 98.7825
lwrist 3.46928
lhand -54.2578 -14.0978
lfingers 7.12502
lthumb -26.6701 14.0432
rfemur -42.8268 -1.17686 21.4492
rtibia 43.7444
rfoot -18.3947 -8.90436
rtoes 12.3155
lfemur -57.1442 -14.8525 2.39962
ltibia 51.9927
lfoot 4.19016 2.1216
ltoes 1.31704
444
root 11.5744 15.595 -3.82339 -8.04285 -83.524 27.3035
lowerback 31.6185 2.15501 -0.564931
upperback 10.2548 1.30801 -2.94072
thorax -5.59134 0.28808 -3.38748
lowerneck -6.84443 9.93437 4.37214
upperneck 6.66876 14.6513 -19.8516
head 5.00911 6.43456 -5.77685
rclavicle 1.8487e-014 5.04913e-014
rhumerus -45.5814 -10.864 -27.1127
rradius 98.6214
rwrist -29.809
rhand -17.2284 -40.8945
rfingers 7.12502
rthumb 9.01498 -70.6819
lclavicle 1.8487e-014 5.04913e-014
lhumerus -38.2646 3.08238 59.3166
lradius 99.2696
lwrist 3.7592
lhand -54.1231 -13.9729
lfingers 7.12502
lthumb -26.5412 14.1877
rfemur -43.4731 -1.95716 21.4575
rtibia 44.5894
rfoot -18.434 -9.11554
rtoes 12.1064
lfemur -57.6016 -15.0158 2.11289
ltibia 52.3173
lfoot 3.48357 2.11975
ltoes 3.7681
445
root 11.6053 15.5778 -3.81625 -7.88759 -83.326 27.2818
lowerback 30.9863 1.88403 0.0972582
upperback 10.3462 1.17956 -3.05272
thorax -5.18677 0.246181 -3.83189
lowerneck -6.95148 9.60323 4.66199
upperneck 6.82049 14.1723 -19.6205
head 5.01305 6.20228 -5.79589
rclavicle 2.78299e-015 7.95139e-015
rhumerus -44.2142 -11.0285 -25.0797
rradius 99.0913
rwrist -30.5434
rhand -17.1259 -40.7725
rfingers 7.12502
rthumb 9.11387 -70.5556
lclavicle 2.78299e-015 7.95139e-015
lhumerus -37.3445 2.96648 57.5208
lradius 99.5467
lwrist 4.49709
lhand -53.6628 -14.1369
lfingers 7.12502
lthumb -26.1005 14.0895
rfemur -44.2371 -2.31871 21.4641
rtibia 45.4427
rfoot -18.2531 -9.39511
rtoes 10.9608
lfemur -57.9322 -14.8604 1.81138
ltibia 52.8091
lfoot 2.74376 2.43573
ltoes 6.64331
446
root 11.6374 15.5563 -3.80181 -7.74307 -83.2371 27.3836
lowerback 30.8118 2.03546 0.688007
upperback 10.207 1.56697 -3.00216
thorax -5.21883 0.446532 -4.2469
lowerneck -6.98356 9.27732 5.46035
upperneck 7.37235 13.7779 -19.9753
head 5.2193 5.9763 -6.07794
rclavicle 5.50634e-014 -1.55052e-014
rhumerus -43.7903 -11.6034 -22.5366
rradius 99.6537
rwrist -31.1733
rhand -17.4626 -40.9404
rfingers 7.12502
rthumb 8.78899 -70.7374
lclavicle 5.50634e-014 -1.55052e-014
lhumerus -36.1163 2.00868 56.2966
lradius 99.843
lwrist 4.59326
lhand -53.5736 -13.9092
lfingers 7.12502
lthumb -26.0151 14.3298
rfemur -45.11 -2.52991 21.4361
rtibia 46.1966
rfoot -18.048 -9.5666
rtoes 10.6167
lfemur -58.3397 -14.5441 1.4535
ltibia 53.499
lfoot 1.75529 2.66292
ltoes 5.97953
